<svg width="221" height="221" viewBox="0 0 221 221" fill="none" xmlns="http://www.w3.org/2000/svg">
<g clip-path="url(#clip0_4_4)">
<path d="M131.219 20.7188C131.219 15.2238 129.036 9.9539 125.15 6.06838C121.265 2.18286 115.995 0 110.5 0C105.005 0 99.7352 2.18286 95.8496 6.06838C91.9641 9.9539 89.7812 15.2238 89.7812 20.7188C89.7812 26.2137 91.9641 31.4836 95.8496 35.3691C99.7352 39.2546 105.005 41.4375 110.5 41.4375C115.995 41.4375 121.265 39.2546 125.15 35.3691C129.036 31.4836 131.219 26.2137 131.219 20.7188ZM131.219 200.281C131.219 194.786 129.036 189.516 125.15 185.631C121.265 181.745 115.995 179.563 110.5 179.562C105.005 179.563 99.7352 181.745 95.8496 185.631C91.9641 189.516 89.7812 194.786 89.7812 200.281C89.7812 205.776 91.9641 211.046 95.8496 214.932C99.7352 218.817 105.005 221 110.5 221C115.995 221 121.265 218.817 125.15 214.932C129.036 211.046 131.219 205.776 131.219 200.281ZM20.7188 131.219C26.2137 131.219 31.4836 129.036 35.3691 125.15C39.2546 121.265 41.4375 115.995 41.4375 110.5C41.4375 105.005 39.2546 99.7352 35.3691 95.8496C31.4836 91.9641 26.2137 89.7812 20.7188 89.7812C15.2238 89.7812 9.9539 91.9641 6.06838 95.8496C2.18286 99.7352 0 105.005 0 110.5C0 115.995 2.18286 121.265 6.06838 125.15C9.9539 129.036 15.2238 131.219 20.7188 131.219ZM221 110.5C221 105.005 218.817 99.7352 214.932 95.8496C211.046 91.9641 205.776 89.7812 200.281 89.7812C194.786 89.7812 189.516 91.9641 185.631 95.8496C181.745 99.7352 179.563 105.005 179.562 110.5C179.563 115.995 181.745 121.265 185.631 125.15C189.516 129.036 194.786 131.219 200.281 131.219C205.776 131.219 211.046 129.036 214.932 125.15C218.817 121.265 221 115.995 221 110.5ZM61.6814 188.627C63.6059 186.703 65.1324 184.418 66.1739 181.904C67.2154 179.389 67.7514 176.694 67.7514 173.973C67.7514 171.251 67.2154 168.556 66.1739 166.042C65.1324 163.528 63.6059 161.243 61.6814 159.319C59.757 157.394 57.4724 155.868 54.958 154.826C52.4437 153.785 49.7488 153.249 47.0272 153.249C41.5309 153.249 36.2596 155.432 32.373 159.319C28.4865 163.205 26.3031 168.476 26.3031 173.973C26.3031 179.469 28.4865 184.74 32.373 188.627C36.2596 192.513 41.5309 194.697 47.0272 194.697C52.5236 194.697 57.7949 192.513 61.6814 188.627ZM61.6814 61.6383C63.7015 59.7363 65.3189 57.4479 66.4378 54.9089C67.5566 52.37 68.1541 49.6321 68.1949 46.8579C68.2356 44.0836 67.7186 41.3294 66.6747 38.7588C65.6309 36.1881 64.0813 33.8532 62.1179 31.8927C60.1545 29.9323 57.8174 28.3861 55.2452 27.346C52.673 26.3059 49.918 25.7931 47.1438 25.8379C44.3696 25.8827 41.6327 26.4842 39.0954 27.6068C36.5581 28.7294 34.2721 30.3502 32.373 32.373C28.4865 36.2596 26.3031 41.5309 26.3031 47.0272C26.3031 52.5236 28.4865 57.7949 32.373 61.6814C36.2596 65.568 41.5309 67.7514 47.0272 67.7514C52.5236 67.7514 57.7949 65.568 61.6814 61.6814V61.6383ZM159.319 188.627C161.243 190.551 163.528 192.078 166.042 193.119C168.556 194.161 171.251 194.697 173.973 194.697C176.694 194.697 179.389 194.161 181.904 193.119C184.418 192.078 186.703 190.551 188.627 188.627C190.551 186.703 192.078 184.418 193.119 181.904C194.161 179.389 194.697 176.694 194.697 173.973C194.697 171.251 194.161 168.556 193.119 166.042C192.078 163.528 190.551 161.243 188.627 159.319C186.703 157.394 184.418 155.868 181.904 154.826C179.389 153.785 176.694 153.249 173.973 153.249C171.251 153.249 168.556 153.785 166.042 154.826C163.528 155.868 161.243 157.394 159.319 159.319C157.394 161.243 155.868 163.528 154.826 166.042C153.785 168.556 153.249 171.251 153.249 173.973C153.249 176.694 153.785 179.389 154.826 181.904C155.868 184.418 157.394 186.703 159.319 188.627Z" fill="url(#paint0_linear_4_4)"/>
</g>
<defs>
<linearGradient id="paint0_linear_4_4" x1="37" y1="26" x2="188.5" y2="179" gradientUnits="userSpaceOnUse">
<stop stop-color="#0E7490"/>
<stop offset="0.837724" stop-color="#E6E7E8"/>
</linearGradient>
<clipPath id="clip0_4_4">
<rect width="221" height="221" fill="white"/>
</clipPath>
</defs>
</svg>
