<svg width="120" height="33" viewBox="0 0 120 33" fill="none" xmlns="http://www.w3.org/2000/svg">
<rect width="41" height="28" fill="#0E7490"/>
<path d="M13.82 26.92L13.44 26.18H22.66V28H12V26.26L20.6 15.88L20.98 16.62H12.18V14.8H22.42V16.54L13.82 26.92ZM27.7172 14.8V28H25.5772V14.8H27.7172ZM36.7119 14.8C37.6585 14.8 38.4719 14.9667 39.1519 15.3C39.8452 15.6333 40.3852 16.1067 40.7719 16.72C41.1585 17.3333 41.3519 18.0733 41.3519 18.94C41.3519 19.7933 41.1585 20.5333 40.7719 21.16C40.3852 21.7733 39.8452 22.2467 39.1519 22.58C38.4719 22.9133 37.6585 23.08 36.7119 23.08H33.7719V28H31.6319V14.8H36.7119ZM36.3719 21.24C37.3185 21.24 38.0119 21.0467 38.4519 20.66C38.9052 20.26 39.1319 19.6867 39.1319 18.94C39.1319 18.18 38.9052 17.6067 38.4519 17.22C38.0119 16.82 37.3185 16.62 36.3719 16.62H33.7719V21.24H36.3719Z" fill="white"/>
<path d="M49.3709 14.8C50.7176 14.8 51.7976 15.1467 52.6109 15.84C53.4243 16.5333 53.8309 17.4733 53.8309 18.66C53.8309 19.8467 53.4176 20.7733 52.5909 21.44C51.7776 22.0933 50.6976 22.42 49.3509 22.42L49.2109 22.52H45.9709V28H44.3709V14.8H49.3709ZM49.3509 21.02C50.2976 21.02 50.9976 20.8267 51.4509 20.44C51.9176 20.04 52.1509 19.4467 52.1509 18.66C52.1509 17.8733 51.9176 17.2867 51.4509 16.9C50.9976 16.5 50.2976 16.3 49.3509 16.3H45.9709V21.02H49.3509ZM50.2709 21.34L54.6309 28H52.7309L48.9309 22.22L50.2709 21.34ZM57.6717 28V14.8H66.9317V16.3H59.2717V20.56H65.2317V22.06H59.2717V26.5H67.2317V28H57.6717ZM80.6656 14.8L75.6656 28H73.8456L68.8256 14.8H70.5456L73.9056 23.92L74.7456 26.54L75.5856 23.94L78.9456 14.8H80.6656ZM84.9944 14.8V28H83.3944V14.8H84.9944ZM89.3123 28V14.8H98.5723V16.3H90.9123V20.56H96.8723V22.06H90.9123V26.5H98.8723V28H89.3123ZM104.526 28L100.626 14.8H102.286L105.546 26.54L108.646 14.8H110.466L113.566 26.58L116.826 14.8H118.406L114.526 28H112.546L110.206 19.44L109.526 16.46H109.506L108.826 19.44L106.506 28H104.526Z" fill="black"/>
</svg>
